<svg width="44" height="44" viewBox="0 0 44 44" fill="none" xmlns="http://www.w3.org/2000/svg">
<path d="M22 44C16.1236 44 10.5988 41.7117 6.44359 37.5564C2.28834 33.4012 0 27.8764 0 22C0 16.1236 2.28843 10.5989 6.44359 6.44359C10.5988 2.28826 16.1236 0 22 0C27.8764 0 33.4012 2.28834 37.5564 6.44359C41.7117 10.5988 44 16.1236 44 22C44 27.8764 41.7116 33.4011 37.5564 37.5564C33.4012 41.7117 27.8764 44 22 44ZM22 2.75C11.3855 2.75 2.75 11.3855 2.75 22C2.75 32.6145 11.3855 41.25 22 41.25C32.6145 41.25 41.25 32.6145 41.25 22C41.25 11.3855 32.6145 2.75 22 2.75Z" fill="#14A38B"/>
<path d="M27.0071 22C28.1512 20.9914 28.875 19.5165 28.875 17.875C28.875 15.5715 27.4509 13.5955 25.4375 12.7778V11C25.4375 10.2407 24.8219 9.625 24.0625 9.625C23.3031 9.625 22.6875 10.2407 22.6875 11V12.375H19.9375V11C19.9375 10.2407 19.3219 9.625 18.5625 9.625C17.8031 9.625 17.1875 10.2407 17.1875 11V12.375H14.4375C13.6781 12.375 13.0625 12.9907 13.0625 13.75C13.0625 14.5093 13.6781 15.125 14.4375 15.125H15.8125V28.875H14.4375C13.6781 28.875 13.0625 29.4907 13.0625 30.25C13.0625 31.0093 13.6781 31.625 14.4375 31.625H17.1875V33C17.1875 33.7593 17.8031 34.375 18.5625 34.375C19.3219 34.375 19.9375 33.7593 19.9375 33V31.625H22.6875V33C22.6875 33.7593 23.3031 34.375 24.0625 34.375C24.8219 34.375 25.4375 33.7593 25.4375 33V31.2222C27.4509 30.4045 28.875 28.4285 28.875 26.125C28.875 24.4835 28.1512 23.0086 27.0071 22ZM18.5625 15.125H23.375C24.8914 15.125 26.125 16.3586 26.125 17.875C26.125 19.3914 24.8914 20.625 23.375 20.625H18.5625V15.125ZM23.375 28.875H18.5625V23.375H23.375C24.8914 23.375 26.125 24.6086 26.125 26.125C26.125 27.6414 24.8914 28.875 23.375 28.875Z" fill="#14A38B"/>
</svg>
