<svg width="44" height="44" viewBox="0 0 44 44" fill="none" xmlns="http://www.w3.org/2000/svg">
<path d="M42.5 22C42.5 33.3218 33.3218 42.5 22 42.5C10.6782 42.5 1.5 33.3218 1.5 22C1.5 10.6782 10.6782 1.5 22 1.5C33.3218 1.5 42.5 10.6782 42.5 22Z" stroke="#D6CF6E" stroke-width="3"/>
<path d="M21.7423 10.5053L15.5636 20.4695C15.489 20.5898 15.5254 20.7477 15.6451 20.8233L21.9481 24.8041C22.0332 24.8579 22.1417 24.8572 22.2261 24.8024L28.3581 20.825C28.4763 20.7483 28.5111 20.591 28.4361 20.4716L22.1798 10.504C22.0784 10.3425 21.8428 10.3432 21.7423 10.5053Z" fill="#D6CF6E"/>
<path d="M22.1752 28.2515L27.5911 24.883C27.8259 24.737 28.0946 25.0128 27.9426 25.2437L22.4858 33.5326C22.3864 33.6836 22.1663 33.688 22.0609 33.541L16.1563 25.3019C15.9924 25.0732 16.2611 24.7847 16.5008 24.932L21.9041 28.2521C21.9874 28.3034 22.0923 28.3031 22.1752 28.2515Z" fill="#D6CF6E"/>
</svg>
