<svg width="51" height="51" viewBox="0 0 51 51" fill="none" xmlns="http://www.w3.org/2000/svg">
<path d="M47.9542 4.07203C47.8125 3.57558 47.4245 3.1876 46.9281 3.04576C40.0197 1.072 33.061 0 25.5 0C17.9365 0 10.9762 1.07319 4.07193 3.04576C3.57558 3.1876 3.1875 3.57568 3.04576 4.07203C1.0188 11.1666 0 18.1174 0 25.5C0 32.6073 0.978662 39.6932 2.9331 46.5336C3.04028 46.9088 3.17794 47.6987 4.07193 47.9542C11.1215 49.9687 18.0452 50.9963 25.4747 50.9987C25.4832 50.9988 25.4914 51 25.5 51C25.5086 51 25.5167 50.9989 25.5253 50.9987C32.6872 50.9963 39.7646 50.0009 46.5337 48.0669C47.4424 47.8072 47.7312 47.7085 48.0669 46.5337C50.0343 39.6477 51 32.5485 51 25.5C51 17.8751 49.9132 10.9305 47.9542 4.07203Z" fill="url(#paint0_linear)"/>
<path d="M33 21.6429C33 18.4525 30.4768 15.8571 27.375 15.8571V13.9286C27.375 12.8626 26.5364 12 25.5 12C24.4636 12 23.625 12.8626 23.625 13.9286V15.8571H19.875C18.8386 15.8571 18 16.7197 18 17.7857C18 18.8517 18.8386 19.7143 19.875 19.7143V31.2857C18.8386 31.2857 18 32.1483 18 33.2143C18 34.2803 18.8386 35.1429 19.875 35.1429H23.625V37.0714C23.625 38.1374 24.4636 39 25.5 39C26.5364 39 27.375 38.1374 27.375 37.0714V35.1429C30.4768 35.1429 33 32.5475 33 29.3571C33 27.8768 32.458 26.5246 31.5645 25.5C32.458 24.4754 33 23.1232 33 21.6429ZM27.375 31.2857H23.625V27.4286H27.375C28.4078 27.4286 29.25 28.2931 29.25 29.3571C29.25 30.4212 28.4078 31.2857 27.375 31.2857ZM27.375 23.5714H23.625V19.7143H27.375C28.4078 19.7143 29.25 20.5788 29.25 21.6429C29.25 22.7069 28.4078 23.5714 27.375 23.5714Z" fill="#CFF1FE"/>
<defs>
<linearGradient id="paint0_linear" x1="1.02" y1="2.04" x2="51" y2="51" gradientUnits="userSpaceOnUse">
<stop stop-color="#0880AE"/>
<stop offset="1" stop-color="#77C5E2"/>
</linearGradient>
</defs>
</svg>
