<svg width="11" height="10" viewBox="0 0 11 10" fill="none" xmlns="http://www.w3.org/2000/svg">
<path d="M4.71123 2.772C4.71123 3.5 4.52323 4.06 4.14723 4.452C3.77923 4.844 3.29523 5.04 2.69523 5.04C2.39923 5.04 2.12723 4.992 1.87923 4.896C1.63123 4.792 1.41923 4.644 1.24323 4.452C1.06723 4.26 0.927234 4.024 0.823234 3.744C0.727234 3.456 0.679234 3.132 0.679234 2.772C0.679234 2.036 0.863234 1.476 1.23123 1.092C1.60723 0.7 2.09523 0.504 2.69523 0.504C3.29523 0.504 3.77923 0.7 4.14723 1.092C4.52323 1.476 4.71123 2.036 4.71123 2.772ZM3.57123 2.772C3.57123 2.348 3.49123 2.032 3.33123 1.824C3.17923 1.608 2.96723 1.5 2.69523 1.5C2.42323 1.5 2.21123 1.608 2.05923 1.824C1.90723 2.032 1.83123 2.348 1.83123 2.772C1.83123 3.196 1.90723 3.516 2.05923 3.732C2.21123 3.94 2.42323 4.044 2.69523 4.044C2.96723 4.044 3.17923 3.94 3.33123 3.732C3.49123 3.516 3.57123 3.196 3.57123 2.772ZM7.14723 0.684H8.52723L3.83523 9H2.45523L7.14723 0.684ZM10.3152 6.924C10.3152 7.652 10.1272 8.212 9.75123 8.604C9.38323 8.996 8.89923 9.192 8.29923 9.192C8.00323 9.192 7.73123 9.14 7.48323 9.036C7.23523 8.94 7.02323 8.796 6.84723 8.604C6.67123 8.412 6.53123 8.176 6.42723 7.896C6.33123 7.608 6.28323 7.284 6.28323 6.924C6.28323 6.188 6.46723 5.628 6.83523 5.244C7.21123 4.852 7.69923 4.656 8.29923 4.656C8.89923 4.656 9.38323 4.852 9.75123 5.244C10.1272 5.628 10.3152 6.188 10.3152 6.924ZM9.17524 6.924C9.17524 6.5 9.09523 6.184 8.93523 5.976C8.78323 5.76 8.57123 5.652 8.29923 5.652C8.02723 5.652 7.81523 5.76 7.66323 5.976C7.51123 6.184 7.43523 6.5 7.43523 6.924C7.43523 7.348 7.51123 7.668 7.66323 7.884C7.81523 8.092 8.02723 8.196 8.29923 8.196C8.57123 8.196 8.78323 8.092 8.93523 7.884C9.09523 7.668 9.17524 7.348 9.17524 6.924Z" fill="#F32F22"/>
</svg>
